<mxfile host="app.diagrams.net" modified="2022-01-12T11:44:59.927Z" agent="5.0 (Windows NT 10.0; Win64; x64) AppleWebKit/537.36 (KHTML, like Gecko) Chrome/97.0.4692.71 Safari/537.36" etag="uVse6h9tm5muVZn0pWFL" version="16.2.4" type="github">
  <diagram id="7w5shZzXePETHSVYoWxc" name="Page-1">
    <mxGraphModel dx="782" dy="706" grid="1" gridSize="10" guides="1" tooltips="1" connect="1" arrows="1" fold="1" page="1" pageScale="1" pageWidth="850" pageHeight="1100" math="0" shadow="0">
      <root>
        <mxCell id="0" />
        <mxCell id="1" parent="0" />
        <mxCell id="6B_npjOtoBmQOe1TR8oO-1" style="edgeStyle=orthogonalEdgeStyle;rounded=0;orthogonalLoop=1;jettySize=auto;html=1;exitX=0.5;exitY=1;exitDx=0;exitDy=0;" parent="1" source="KBZl2YYVLOGSF0I40q8S-2" edge="1">
          <mxGeometry relative="1" as="geometry">
            <mxPoint x="400" y="440" as="targetPoint" />
          </mxGeometry>
        </mxCell>
        <mxCell id="KBZl2YYVLOGSF0I40q8S-2" value="Start" style="ellipse;whiteSpace=wrap;html=1;" parent="1" vertex="1">
          <mxGeometry x="340" y="320" width="120" height="80" as="geometry" />
        </mxCell>
        <mxCell id="6B_npjOtoBmQOe1TR8oO-4" value="" style="edgeStyle=orthogonalEdgeStyle;rounded=0;orthogonalLoop=1;jettySize=auto;html=1;" parent="1" source="6B_npjOtoBmQOe1TR8oO-2" target="6B_npjOtoBmQOe1TR8oO-3" edge="1">
          <mxGeometry relative="1" as="geometry" />
        </mxCell>
        <mxCell id="6B_npjOtoBmQOe1TR8oO-2" value="GRID_WIDTH = Get Grid Width" style="rounded=0;whiteSpace=wrap;html=1;" parent="1" vertex="1">
          <mxGeometry x="340" y="440" width="120" height="60" as="geometry" />
        </mxCell>
        <mxCell id="6B_npjOtoBmQOe1TR8oO-6" value="" style="edgeStyle=orthogonalEdgeStyle;rounded=0;orthogonalLoop=1;jettySize=auto;html=1;" parent="1" source="6B_npjOtoBmQOe1TR8oO-3" target="6B_npjOtoBmQOe1TR8oO-5" edge="1">
          <mxGeometry relative="1" as="geometry" />
        </mxCell>
        <mxCell id="6B_npjOtoBmQOe1TR8oO-3" value="GRID_HEIGHT = Get Grid Height" style="rounded=0;whiteSpace=wrap;html=1;" parent="1" vertex="1">
          <mxGeometry x="340" y="530" width="120" height="60" as="geometry" />
        </mxCell>
        <mxCell id="6B_npjOtoBmQOe1TR8oO-7" style="edgeStyle=orthogonalEdgeStyle;rounded=0;orthogonalLoop=1;jettySize=auto;html=1;" parent="1" source="6B_npjOtoBmQOe1TR8oO-5" edge="1">
          <mxGeometry relative="1" as="geometry">
            <mxPoint x="400" y="710" as="targetPoint" />
          </mxGeometry>
        </mxCell>
        <mxCell id="6B_npjOtoBmQOe1TR8oO-5" value="grid = new bool[GRID_WIDTH, GRID_HEIGHT]" style="rounded=0;whiteSpace=wrap;html=1;" parent="1" vertex="1">
          <mxGeometry x="340" y="620" width="120" height="60" as="geometry" />
        </mxCell>
        <mxCell id="6B_npjOtoBmQOe1TR8oO-11" value="" style="edgeStyle=orthogonalEdgeStyle;rounded=0;orthogonalLoop=1;jettySize=auto;html=1;" parent="1" source="6B_npjOtoBmQOe1TR8oO-9" target="6B_npjOtoBmQOe1TR8oO-10" edge="1">
          <mxGeometry relative="1" as="geometry" />
        </mxCell>
        <mxCell id="6B_npjOtoBmQOe1TR8oO-9" value="Randomize end goal coordinates" style="shape=parallelogram;perimeter=parallelogramPerimeter;whiteSpace=wrap;html=1;fixedSize=1;" parent="1" vertex="1">
          <mxGeometry x="321" y="710" width="150" height="60" as="geometry" />
        </mxCell>
        <mxCell id="6B_npjOtoBmQOe1TR8oO-13" value="" style="edgeStyle=orthogonalEdgeStyle;rounded=0;orthogonalLoop=1;jettySize=auto;html=1;" parent="1" source="6B_npjOtoBmQOe1TR8oO-10" edge="1">
          <mxGeometry relative="1" as="geometry">
            <mxPoint x="396" y="890" as="targetPoint" />
          </mxGeometry>
        </mxCell>
        <mxCell id="6B_npjOtoBmQOe1TR8oO-10" value="goal = new int" style="whiteSpace=wrap;html=1;" parent="1" vertex="1">
          <mxGeometry x="336" y="800" width="120" height="60" as="geometry" />
        </mxCell>
        <mxCell id="EBhT7KF3SH_6E2Iv8zCc-10" value="" style="edgeStyle=orthogonalEdgeStyle;rounded=0;orthogonalLoop=1;jettySize=auto;html=1;" edge="1" parent="1" source="R8sPB7nf0KhpVJkGB3Jy-2" target="EBhT7KF3SH_6E2Iv8zCc-1">
          <mxGeometry relative="1" as="geometry" />
        </mxCell>
        <mxCell id="EBhT7KF3SH_6E2Iv8zCc-12" value="" style="edgeStyle=orthogonalEdgeStyle;rounded=0;orthogonalLoop=1;jettySize=auto;html=1;" edge="1" parent="1" source="R8sPB7nf0KhpVJkGB3Jy-2" target="EBhT7KF3SH_6E2Iv8zCc-4">
          <mxGeometry relative="1" as="geometry" />
        </mxCell>
        <mxCell id="R8sPB7nf0KhpVJkGB3Jy-2" value="Have all squares in maze been checked?" style="rhombus;whiteSpace=wrap;html=1;" parent="1" vertex="1">
          <mxGeometry x="356" y="890" width="80" height="80" as="geometry" />
        </mxCell>
        <mxCell id="EBhT7KF3SH_6E2Iv8zCc-3" value="" style="edgeStyle=orthogonalEdgeStyle;rounded=0;orthogonalLoop=1;jettySize=auto;html=1;" edge="1" parent="1" source="EBhT7KF3SH_6E2Iv8zCc-1" target="EBhT7KF3SH_6E2Iv8zCc-2">
          <mxGeometry relative="1" as="geometry" />
        </mxCell>
        <mxCell id="EBhT7KF3SH_6E2Iv8zCc-1" value="&lt;span&gt;if square = goal&lt;/span&gt;&lt;br&gt;&lt;span&gt;Set wall to false&lt;/span&gt;" style="rhombus;whiteSpace=wrap;html=1;" vertex="1" parent="1">
          <mxGeometry x="344" y="1000" width="104" height="110" as="geometry" />
        </mxCell>
        <mxCell id="EBhT7KF3SH_6E2Iv8zCc-2" value="&lt;span&gt;if square = player start location&lt;/span&gt;&lt;br&gt;&lt;span&gt;Set wall to false&lt;/span&gt;" style="rhombus;whiteSpace=wrap;html=1;" vertex="1" parent="1">
          <mxGeometry x="344" y="1140" width="104" height="110" as="geometry" />
        </mxCell>
        <mxCell id="EBhT7KF3SH_6E2Iv8zCc-14" value="" style="edgeStyle=orthogonalEdgeStyle;rounded=0;orthogonalLoop=1;jettySize=auto;html=1;" edge="1" parent="1" source="EBhT7KF3SH_6E2Iv8zCc-4" target="EBhT7KF3SH_6E2Iv8zCc-13">
          <mxGeometry relative="1" as="geometry" />
        </mxCell>
        <mxCell id="EBhT7KF3SH_6E2Iv8zCc-18" value="" style="edgeStyle=orthogonalEdgeStyle;rounded=0;orthogonalLoop=1;jettySize=auto;html=1;" edge="1" parent="1" source="EBhT7KF3SH_6E2Iv8zCc-4" target="EBhT7KF3SH_6E2Iv8zCc-17">
          <mxGeometry relative="1" as="geometry" />
        </mxCell>
        <mxCell id="EBhT7KF3SH_6E2Iv8zCc-4" value="While no path from start to exit" style="rhombus;whiteSpace=wrap;html=1;" vertex="1" parent="1">
          <mxGeometry x="468" y="875" width="104" height="110" as="geometry" />
        </mxCell>
        <mxCell id="EBhT7KF3SH_6E2Iv8zCc-8" value="No" style="text;strokeColor=none;fillColor=none;align=left;verticalAlign=middle;spacingLeft=4;spacingRight=4;overflow=hidden;points=[[0,0.5],[1,0.5]];portConstraint=eastwest;rotatable=0;" vertex="1" parent="1">
          <mxGeometry x="356" y="970" width="30" height="30" as="geometry" />
        </mxCell>
        <mxCell id="EBhT7KF3SH_6E2Iv8zCc-11" value="Yes" style="text;strokeColor=none;fillColor=none;align=left;verticalAlign=middle;spacingLeft=4;spacingRight=4;overflow=hidden;points=[[0,0.5],[1,0.5]];portConstraint=eastwest;rotatable=0;" vertex="1" parent="1">
          <mxGeometry x="430" y="890" width="30" height="30" as="geometry" />
        </mxCell>
        <mxCell id="EBhT7KF3SH_6E2Iv8zCc-13" value="set random wall to false" style="shape=parallelogram;perimeter=parallelogramPerimeter;whiteSpace=wrap;html=1;fixedSize=1;" vertex="1" parent="1">
          <mxGeometry x="460" y="1020" width="120" height="60" as="geometry" />
        </mxCell>
        <mxCell id="EBhT7KF3SH_6E2Iv8zCc-16" value="Path = false" style="text;strokeColor=none;fillColor=none;align=left;verticalAlign=middle;spacingLeft=4;spacingRight=4;overflow=hidden;points=[[0,0.5],[1,0.5]];portConstraint=eastwest;rotatable=0;" vertex="1" parent="1">
          <mxGeometry x="530" y="985" width="80" height="30" as="geometry" />
        </mxCell>
        <mxCell id="EBhT7KF3SH_6E2Iv8zCc-17" value="Stop" style="ellipse;whiteSpace=wrap;html=1;" vertex="1" parent="1">
          <mxGeometry x="644" y="900" width="120" height="60" as="geometry" />
        </mxCell>
        <mxCell id="EBhT7KF3SH_6E2Iv8zCc-19" value="Path = true" style="text;strokeColor=none;fillColor=none;align=left;verticalAlign=middle;spacingLeft=4;spacingRight=4;overflow=hidden;points=[[0,0.5],[1,0.5]];portConstraint=eastwest;rotatable=0;" vertex="1" parent="1">
          <mxGeometry x="572" y="890" width="80" height="30" as="geometry" />
        </mxCell>
      </root>
    </mxGraphModel>
  </diagram>
</mxfile>
